<svg xmlns="http://www.w3.org/2000/svg" width="79" height="79" viewBox="0 0 79 79"><g transform="translate(15546 6379)"><rect width="79" height="79" transform="translate(-15546 -6379)" fill="#be3e78"/><g transform="translate(-16153.971 -7253.498)"><path d="M621.525,895.8c15.079.413,49.443-1.631,49.443-1.631,1.683-1.513,1.484-6.513.653-8.278-.719-1.529-41.812,1.786-46.46,2.638C620.663,889.359,621.5,891.442,621.525,895.8Z" transform="translate(-4.394 5)" fill="none" stroke="#70babf" stroke-linecap="round" stroke-linejoin="round" stroke-width="4"/><path d="M623,906.733c1.538,1.139,47.012-.322,49.709-2.194,0,0,1.756-6.089-.479-8.493-10.805.469-47.427.279-50.022,2.078C620.815,899.093,620.033,906.733,623,906.733Z" transform="translate(5 13.381)" fill="none" stroke="#70babf" stroke-linecap="round" stroke-linejoin="round" stroke-width="4"/><path d="M621.914,917.658c14.75-1.078,36.306.113,51.056-.964-.122-3.394-.247-7.059-.372-10.452-12.89.5-37.125.982-50.015,1.5Z" transform="translate(-2.803 21.315)" fill="none" stroke="#70babf" stroke-linecap="round" stroke-linejoin="round" stroke-width="4"/></g></g></svg>