<svg xmlns="http://www.w3.org/2000/svg" width="191.262" height="92.879" viewBox="0 0 191.262 92.879"><rect width="191.262" height="92.879" transform="translate(0 0)" fill="#f4c944"/><g transform="translate(12.496 17.641)"><g transform="translate(0 21.183)"><g transform="translate(0 0)"><path d="M1937.154,1680.658l.5,1.51c.125.315,0,.5-.315.5h-5.791c-.315,0-.441-.189-.378-.5l.5-1.51v-3.4h-5.413v12.274l8.875,3.651a.848.848,0,0,1,.441.377l1.385,2.2a.88.88,0,0,1,.189.566v15.925a.685.685,0,0,1-.251.567l-2.2,2.2a.683.683,0,0,1-.566.252h-10.26a.683.683,0,0,1-.566-.252l-2.266-2.2a.684.684,0,0,1-.252-.567v-5.791l-.5-1.511c-.063-.315.063-.5.378-.5h5.791c.315,0,.441.189.315.5l-.5,1.511v3.4h5.413v-12.275l-8.812-3.651a.846.846,0,0,1-.441-.378l-1.448-2.2a.882.882,0,0,1-.188-.567V1674.8a.684.684,0,0,1,.252-.566l2.266-2.2a.684.684,0,0,1,.566-.252h10.26a.684.684,0,0,1,.566.252l2.2,2.2a.685.685,0,0,1,.251.566Z" transform="translate(-1920.269 -1671.783)" fill="#252a6a"/></g><g transform="translate(21.179 0)"><path d="M2188.593,1671.783c.315,0,.441.188.315.5l-.5,1.574v28.346a.684.684,0,0,1-.252.567l-2.2,2.2a.684.684,0,0,1-.567.252h-10.26a.684.684,0,0,1-.567-.252l-2.2-2.2a.684.684,0,0,1-.252-.567V1673.86l-.5-1.574c-.126-.315,0-.5.314-.5h5.791c.315,0,.441.188.315.5l-.5,1.574v25.954h5.477V1673.86l-.5-1.574c-.126-.315,0-.5.314-.5Z" transform="translate(-2171.549 -1671.783)" fill="#252a6a"/></g><g transform="translate(42.642 0)"><path d="M2432.166,1713.265l.5,1.511c.126.315,0,.5-.314.5h-5.791c-.315,0-.441-.189-.315-.5l.5-1.511v-39.4l-.5-1.574c-.126-.315,0-.5.315-.5h13.471a.685.685,0,0,1,.567.252l2.2,2.2a.684.684,0,0,1,.252.566v18.444a.684.684,0,0,1-.252.566l-2.2,2.2a.685.685,0,0,1-.567.251h-7.868Zm0-22.409h5.414v-13.6h-5.414Z" transform="translate(-2426.201 -1671.783)" fill="#252a6a"/></g><g transform="translate(62.783 0)"><path d="M2681.4,1714.839c-.063.314-.189.44-.5.44h-15.359c-.314,0-.44-.189-.314-.5l.5-1.574v-39.4l-.5-1.511c-.126-.315,0-.5.314-.5h15.359c.314,0,.44.126.5.44l.566,4.532a.354.354,0,0,1-.377.441h-10.449v13.6h3.4l1.574-.5c.315-.126.5,0,.5.315v5.791c0,.315-.189.44-.5.315l-1.574-.5h-3.4v13.6h10.449a.354.354,0,0,1,.377.441Z" transform="translate(-2665.169 -1671.783)" fill="#252a6a"/></g><g transform="translate(82.61 0)"><path d="M2906.871,1714.775c.126.315,0,.5-.314.5h-5.791c-.314,0-.44-.189-.314-.5l.5-1.511v-39.4l-.5-1.574c-.126-.315,0-.5.314-.5h13.471a.685.685,0,0,1,.567.252l2.2,2.2a.684.684,0,0,1,.252.566v18.444a.684.684,0,0,1-.252.566l-2.455,2.455,2.329,16.24.693,2.266c.126.315,0,.5-.315.5h-5.728c-.378,0-.5-.189-.378-.5l.441-1.259-2.518-17.248h-2.707v17Zm-.5-23.92h5.477v-13.6h-5.477Z" transform="translate(-2900.402 -1671.783)" fill="#252a6a"/></g><g transform="translate(103.569 0)"><path d="M3165.93,1686.386l-4.029,10.449a.479.479,0,0,1-.5.378h-1.762a.479.479,0,0,1-.5-.378l-4.092-10.449v26.878l.5,1.511c.126.315,0,.5-.315.5h-5.791c-.315,0-.44-.189-.315-.5l.5-1.511v-39.4l-.5-1.574c-.125-.315,0-.5.315-.5h5.224a.479.479,0,0,1,.5.377l5.351,14.226,5.287-14.226a.479.479,0,0,1,.5-.377h5.224c.315,0,.44.188.315.5l-.5,1.574v39.4l.5,1.511c.125.315,0,.5-.315.5h-5.791c-.315,0-.441-.189-.315-.5l.5-1.511Z" transform="translate(-3149.075 -1671.783)" fill="#252a6a"/></g><g transform="translate(130.445 0)"><path d="M3484.18,1714.839c-.063.314-.188.44-.5.44h-15.359c-.315,0-.44-.189-.315-.5l.5-1.574v-39.4l-.5-1.511c-.125-.315,0-.5.315-.5h15.359c.315,0,.44.126.5.44l.567,4.532a.354.354,0,0,1-.378.441H3473.92v13.6h3.4l1.573-.5c.315-.126.5,0,.5.315v5.791c0,.315-.189.44-.5.315l-1.573-.5h-3.4v13.6h10.449a.354.354,0,0,1,.378.441Z" transform="translate(-3467.955 -1671.783)" fill="#252a6a"/></g><g transform="translate(149.161 0)"><path d="M3706.463,1673.482l-4.721,20.017,4.721,20.08.881,1.133c.189.314.063.566-.314.566h-6.421c-.377,0-.5-.189-.377-.5l.314-.881-1.825-11.519-1.826,11.519.252.881c.126.315,0,.5-.315.5h-6.483c-.315,0-.441-.252-.252-.566l.882-1.2,4.658-20.017-4.658-20.017-.882-1.133c-.189-.315-.063-.567.315-.567h6.42c.315,0,.441.188.315.5l-.252.881,1.826,11.456,1.825-11.456-.314-.881c-.126-.315,0-.5.377-.5h6.421c.377,0,.5.252.314.567Z" transform="translate(-3690.008 -1671.783)" fill="#252a6a"/></g><g transform="translate(21.179 37.515)"><path d="M2188.452,2116.906l-1.527.52-13.362.016-1.511-.5c-.315-.126-.5,0-.5.315v5.791c0,.315.189.44.5.378l1.511-.5,13.378-.032,1.511.5c.314.126.5,0,.5-.315v-5.791C2188.956,2116.969,2188.767,2116.843,2188.452,2116.906Z" transform="translate(-2171.549 -2116.89)" fill="#252a6a"/></g></g><g transform="translate(28.813)"><g transform="translate(0)"><path d="M2264.467,1446.244l1.6-.141q1.67,2.616,3.316,5.247l-1.492.124c-.313-.521-.471-.782-.786-1.3-1.2.1-1.8.156-3.008.265-.216.568-.323.852-.537,1.42l-1.446.135Q2263.281,1449.112,2264.467,1446.244Zm2.166,3.1c-.517-.887-.777-1.331-1.3-2.217-.365.964-.547,1.447-.908,2.411C2265.31,1449.459,2265.751,1449.42,2266.633,1449.344Z" transform="translate(-2262.119 -1443.942)" fill="#be3e78"/><path d="M2369.543,1441.139q2.056-2.072,4.136-4.121c-1.651.116-2.477.178-4.127.306l-.067-.861q2.955-.23,5.911-.429c.022.336.034.5.057.839q-2.065,2.018-4.107,4.058c1.754-.132,2.632-.194,4.387-.313l.061.908q-3.094.209-6.185.451C2369.582,1441.642,2369.569,1441.474,2369.543,1441.139Z" transform="translate(-2360.436 -1434.721)" fill="#be3e78"/><path d="M2466.191,1431.22c-.967.058-1.45.088-2.416.149-.022-.345-.033-.517-.055-.862q3.1-.2,6.2-.363c.018.345.027.518.046.863-.967.052-1.45.078-2.417.134l.266,4.635-1.341.079Q2466.33,1433.538,2466.191,1431.22Z" transform="translate(-2446.728 -1429.329)" fill="#be3e78"/><path d="M2567.236,1425.939q2.8-.132,5.6-.246c.013.345.02.518.034.863-1.7.066-2.545.1-4.241.181.026.555.039.832.064,1.387,1.624-.075,2.436-.11,4.059-.174.013.345.02.518.034.863-1.622.064-2.432.1-4.053.174l.071,1.526c1.714-.08,2.571-.116,4.285-.183.013.345.02.518.033.863q-2.811.114-5.62.247Q2567.37,1428.689,2567.236,1425.939Z" transform="translate(-2541.52 -1425.252)" fill="#be3e78"/><path d="M2671.319,1423.514c-.165-.821-.963-1.3-2.109-1.271a1.986,1.986,0,0,0-2.107,2.209,2.024,2.024,0,0,0,2.312,1.875,1.775,1.775,0,0,0,1.938-1.448l1.456-.034c-.33,1.69-2.071,2.321-3.6,2.352-1.661.034-3.442-.951-3.511-2.8-.072-1.937,1.767-3.014,3.507-3.02,2.169-.007,3.4.909,3.575,2.1Z" transform="translate(-2631.679 -1421.301)" fill="#be3e78"/><path d="M2844.367,1420.479q2.685-.018,5.371-.02v.864c-1.6,0-2.405,0-4.009.01,0,.555,0,.833.008,1.388,1.513-.009,2.27-.011,3.783-.01v.864c-1.511,0-2.266,0-3.777.01l.015,2.391-1.344.01Q2844.39,1423.232,2844.367,1420.479Z" transform="translate(-2795.293 -1420.459)" fill="#be3e78"/><path d="M2939.736,1420.563l1.356.009q-.018,2.3-.036,4.6c1.557.012,2.336.021,3.893.044-.005.364-.008.546-.013.91q-2.615-.04-5.23-.053Q2939.72,1423.316,2939.736,1420.563Z" transform="translate(-2882.595 -1420.554)" fill="#be3e78"/><path d="M3026.838,1422.263l1.609.039q1.365,2.787,2.706,5.585l-1.5-.044c-.253-.553-.38-.83-.635-1.383-1.206-.032-1.809-.047-3.016-.073-.278.54-.416.81-.692,1.351l-1.451-.028Q3025.339,1424.98,3026.838,1422.263Zm1.8,3.323c-.415-.94-.623-1.409-1.041-2.348-.47.917-.7,1.376-1.171,2.295C3027.315,1425.552,3027.757,1425.563,3028.641,1425.586Z" transform="translate(-2959.661 -1422.111)" fill="#be3e78"/><path d="M3127.9,1424.186l1.518.052q.974,2.24,1.933,4.487,1.109-2.166,2.234-4.324l1.464.065q-1.542,2.683-3.06,5.38l-1.423-.056Q3129.247,1426.983,3127.9,1424.186Z" transform="translate(-3054.931 -1423.872)" fill="#be3e78"/><path d="M3235.1,1431.784c.1-2.009,2.231-2.8,3.937-2.706s3.738,1.118,3.614,3.125c-.125,1.992-2.236,2.776-3.936,2.681S3235,1433.778,3235.1,1431.784Zm6.149.333c.072-1.2-.744-2.093-2.26-2.177s-2.425.712-2.487,1.914.755,2.084,2.26,2.167S3241.176,1433.318,3241.247,1432.117Z" transform="translate(-3153.089 -1428.344)" fill="#be3e78"/><path d="M3357.1,1435.752l1.354.092c-.086,1.24-.129,1.86-.215,3.1-.053.762-.09,1.684,1.665,1.811s1.86-.8,1.917-1.552c.094-1.24.14-1.859.234-3.1l1.353.1-.244,3.13c-.017,1.839-1.793,2.314-3.323,2.28-1.547-.035-3.192-1-2.951-2.734C3356.973,1437.631,3357.015,1437,3357.1,1435.752Z" transform="translate(-3264.596 -1434.463)" fill="#be3e78"/><path d="M3466.649,1444.164c1.631.136,2.446.207,4.076.354s2.113.83,2.032,1.69a1.324,1.324,0,0,1-1.183,1.222c0,.006,0,.009,0,.015.741.208.867.786.793,1.569a2.032,2.032,0,0,0,.157,1.2l-1.446-.135a1.635,1.635,0,0,1-.084-.844c.071-.776-.012-1.349-.989-1.437-.914-.082-1.372-.122-2.286-.2-.074.867-.112,1.3-.186,2.167l-1.34-.113Zm3.468,2.777c.754.068,1.167-.088,1.223-.7.053-.576-.359-.831-1.08-.9-.933-.084-1.4-.125-2.332-.2l-.137,1.6C3468.722,1446.817,3469.187,1446.858,3470.117,1446.941Z" transform="translate(-3364.708 -1442.166)" fill="#be3e78"/></g></g><g transform="translate(21.278 3.767)"><path d="M2176.047,1467.121l-1.2,2.636-2.121-1.972,1.2-2.636Z" transform="translate(-2172.727 -1465.149)" fill="#be3e78"/></g><g transform="translate(140.87 3.767)"><path d="M3591.64,1467.121l1.2,2.636,2.121-1.972-1.2-2.636Z" transform="translate(-3591.64 -1465.149)" fill="#be3e78"/></g></g></svg>